<svg width="26" height="26" viewBox="0 0 26 26" fill="none" xmlns="http://www.w3.org/2000/svg">
<path d="M6.12501 0.5C5.0064 0.5 4.06944 0.568448 3.30664 0.759634C2.52398 0.955798 1.83574 1.30388 1.33705 1.92223C0.852385 2.52321 0.667301 3.23306 0.583131 3.90066C0.500191 4.55852 0.500013 5.32779 0.500013 6.125L0.500007 6.20601C0.499913 6.97008 0.499822 7.70895 0.575226 8.34105C0.654449 9.00516 0.83228 9.71789 1.31442 10.3225C1.81155 10.9458 2.50206 11.2946 3.28705 11.4906C4.05208 11.6817 4.99509 11.75 6.12501 11.75C7.25493 11.75 8.19795 11.6817 8.96298 11.4906C9.74797 11.2946 10.4385 10.9458 10.9356 10.3225C11.4177 9.71789 11.5956 9.00516 11.6748 8.34105C11.7502 7.70895 11.7501 6.97009 11.75 6.20603L11.75 6.125C11.75 5.32779 11.7498 4.55852 11.6669 3.90066C11.5827 3.23306 11.3976 2.52321 10.913 1.92223C10.4143 1.30388 9.72604 0.955798 8.94338 0.759634C8.18058 0.568448 7.24363 0.5 6.12501 0.5Z" fill="#8F8F8F"/>
<path d="M6.12501 14.25C5.0064 14.25 4.06944 14.3184 3.30664 14.5096C2.52398 14.7058 1.83574 15.0539 1.33705 15.6722C0.852385 16.2732 0.667301 16.9831 0.583131 17.6507C0.500191 18.3085 0.500013 19.0778 0.500013 19.875L0.500007 19.956C0.499913 20.7201 0.499822 21.4589 0.575226 22.091C0.654449 22.7552 0.83228 23.4679 1.31442 24.0725C1.81155 24.6958 2.50206 25.0446 3.28705 25.2406C4.05208 25.4317 4.99509 25.5 6.12501 25.5C7.25493 25.5 8.19795 25.4317 8.96298 25.2406C9.74797 25.0446 10.4385 24.6958 10.9356 24.0725C11.4177 23.4679 11.5956 22.7552 11.6748 22.091C11.7502 21.459 11.7501 20.7201 11.75 19.956L11.75 19.875C11.75 19.0778 11.7498 18.3085 11.6669 17.6507C11.5827 16.9831 11.3976 16.2732 10.913 15.6722C10.4143 15.0539 9.72604 14.7058 8.94338 14.5096C8.18058 14.3184 7.24363 14.25 6.12501 14.25Z" fill="#8F8F8F"/>
<path d="M19.875 14.25C18.7564 14.25 17.8194 14.3184 17.0566 14.5096C16.274 14.7058 15.5857 15.0539 15.0871 15.6722C14.6024 16.2732 14.4173 16.9831 14.3331 17.6507C14.2502 18.3085 14.25 19.0778 14.25 19.875L14.25 19.956C14.2499 20.7201 14.2498 21.4589 14.3252 22.091C14.4044 22.7552 14.5823 23.4679 15.0644 24.0725C15.5616 24.6958 16.2521 25.0446 17.037 25.2406C17.8021 25.4317 18.7451 25.5 19.875 25.5C21.0049 25.5 21.9479 25.4317 22.713 25.2406C23.498 25.0446 24.1885 24.6958 24.6856 24.0724C25.1677 23.4679 25.3456 22.7552 25.4248 22.091C25.5002 21.4589 25.5001 20.7201 25.5 19.956L25.5 19.875C25.5 19.0778 25.4998 18.3085 25.4169 17.6507C25.3327 16.9831 25.1476 16.2732 24.663 15.6722C24.1643 15.0539 23.476 14.7058 22.6934 14.5096C21.9306 14.3184 20.9936 14.25 19.875 14.25Z" fill="#8F8F8F"/>
<path d="M19.875 0.5C18.7564 0.5 17.8194 0.568448 17.0566 0.759634C16.274 0.955798 15.5857 1.30388 15.0871 1.92223C14.6024 2.52321 14.4173 3.23306 14.3331 3.90066C14.2502 4.55852 14.25 5.32779 14.25 6.125L14.25 6.20601C14.2499 6.97008 14.2498 7.70895 14.3252 8.34105C14.4044 9.00516 14.5823 9.71789 15.0644 10.3225C15.5616 10.9458 16.2521 11.2946 17.037 11.4906C17.8021 11.6817 18.7451 11.75 19.875 11.75C21.0049 11.75 21.9479 11.6817 22.713 11.4906C23.498 11.2946 24.1885 10.9458 24.6856 10.3225C25.1677 9.71789 25.3456 9.00516 25.4248 8.34105C25.5002 7.70895 25.5001 6.97008 25.5 6.20601L25.5 6.125C25.5 5.32779 25.4998 4.55852 25.4169 3.90066C25.3327 3.23306 25.1476 2.52321 24.663 1.92223C24.1643 1.30388 23.476 0.955798 22.6934 0.759634C21.9306 0.568448 20.9936 0.5 19.875 0.5Z" fill="#8F8F8F"/>
</svg>
