<svg width="21" height="19" viewBox="0 0 21 19" fill="none" xmlns="http://www.w3.org/2000/svg">
<path fill-rule="evenodd" clip-rule="evenodd" d="M15.6196 2.20246C14.0768 1.7072 12.2506 2.10695 11.3376 3.49294C11.1568 3.76746 10.8528 3.93566 10.5244 3.94297C10.1959 3.95027 9.88482 3.79574 9.69198 3.52952C8.68529 2.13971 6.87801 1.71691 5.37572 2.20214C2.56136 3.10879 1.35066 6.57508 2.31974 9.60381C3.09894 12.0306 4.80713 13.8928 6.55774 15.1602C7.4292 15.791 8.29244 16.2604 9.02039 16.5688C9.78123 16.8911 10.2985 16.9968 10.5022 16.9968C10.7031 16.9968 11.2217 16.8892 11.9888 16.5613C12.7215 16.2481 13.5903 15.7727 14.4655 15.1376C16.2254 13.8604 17.9289 11.9992 18.6799 9.60915L18.6814 9.60438C19.6492 6.57732 18.4344 3.10976 15.6196 2.20246ZM10.4766 1.43243C12.0823 -0.0543644 14.4129 -0.288865 16.2317 0.295271C20.4526 1.65544 21.7647 6.52938 20.5883 10.2125C19.6678 13.1396 17.6208 15.3221 15.6404 16.7593C14.6451 17.4815 13.6461 18.0311 12.7748 18.4035C11.9378 18.7613 11.1163 19 10.5022 19C9.89128 19 9.07523 18.7672 8.24034 18.4136C7.37256 18.046 6.37764 17.502 5.3848 16.7833C3.40697 15.3514 1.36218 13.1694 0.414109 10.216C-0.764088 6.53431 0.537317 1.65669 4.76148 0.295644M10.4766 1.43243C8.86327 0.0103344 6.61338 -0.302229 4.76148 0.295644L10.4766 1.43243Z" fill="#8F8F8F"/>
<path fill-rule="evenodd" clip-rule="evenodd" d="M13.2462 4.9173C13.3026 4.36704 13.7941 3.96679 14.3439 4.02332C15.2 4.11135 15.9436 4.50623 16.4555 5.15423C16.961 5.79405 17.1891 6.61317 17.1601 7.47908C17.1415 8.03193 16.6787 8.46506 16.1264 8.44651C15.574 8.42796 15.1413 7.96475 15.1598 7.4119C15.1758 6.93469 15.0486 6.60299 14.8857 6.39673C14.7292 6.19864 14.4911 6.05217 14.1394 6.016C13.5896 5.95947 13.1897 5.46756 13.2462 4.9173Z" fill="#8F8F8F"/>
</svg>
