<svg width="16" height="15" viewBox="0 0 16 15" fill="none" xmlns="http://www.w3.org/2000/svg">
<path fill-rule="evenodd" clip-rule="evenodd" d="M11.8736 1.64924C10.7173 1.27838 9.34857 1.57772 8.66432 2.61556C8.52878 2.82113 8.30098 2.94708 8.05481 2.95255C7.80864 2.95802 7.57547 2.84231 7.43095 2.64296C6.67645 1.60225 5.32193 1.28565 4.19599 1.64899C2.08668 2.32791 1.17928 4.92352 1.90559 7.19148C2.48959 9.00872 3.76984 10.4032 5.08189 11.3522C5.73503 11.8246 6.38201 12.1761 6.9276 12.407C7.49784 12.6483 7.8855 12.7275 8.03816 12.7275C8.18874 12.7275 8.57747 12.6469 9.15234 12.4014C9.70153 12.1668 10.3527 11.8109 11.0086 11.3352C12.3276 10.3789 13.6043 8.9852 14.1672 7.19548L14.1683 7.19191C14.8937 4.9252 13.9832 2.32864 11.8736 1.64924ZM8.01897 1.07263C9.22245 -0.0407089 10.9692 -0.216307 12.3323 0.221103C15.4958 1.23962 16.4792 4.8893 15.5975 7.64728C14.9076 9.83916 13.3734 11.4734 11.8891 12.5496C11.1432 13.0904 10.3945 13.502 9.74147 13.7809C9.11416 14.0488 8.49845 14.2275 8.03816 14.2275C7.58031 14.2275 6.9687 14.0532 6.34297 13.7884C5.69258 13.5131 4.94691 13.1058 4.2028 12.5676C2.72045 11.4954 1.18792 9.86146 0.477359 7.64991C-0.405677 4.89299 0.5697 1.24055 3.73563 0.221383M8.01897 1.07263C6.80984 0.00773853 5.12359 -0.226313 3.73563 0.221383L8.01897 1.07263Z" fill="#8F8F8F"/>
<path fill-rule="evenodd" clip-rule="evenodd" d="M10.0947 3.68215C10.1371 3.27011 10.5054 2.97039 10.9175 3.01272C11.5591 3.07864 12.1164 3.37433 12.5001 3.85957C12.879 4.33867 13.0499 4.95204 13.0281 5.60045C13.0142 6.01443 12.6674 6.33877 12.2534 6.32488C11.8394 6.31098 11.5151 5.96412 11.529 5.55014C11.541 5.1928 11.4457 4.94442 11.3235 4.78997C11.2062 4.64164 11.0278 4.53195 10.7642 4.50487C10.3521 4.46254 10.0524 4.0942 10.0947 3.68215Z" fill="#8F8F8F"/>
</svg>
