<svg width="18" height="17" viewBox="0 0 18 17" fill="none" xmlns="http://www.w3.org/2000/svg">
<mask id="path-1-outside-1_4052_38" maskUnits="userSpaceOnUse" x="0" y="0" width="18" height="17" fill="black">
<rect fill="white" width="18" height="17"/>
<path d="M10 7C10 9.76142 8.20914 12 6 12C3.79086 12 2 9.76142 2 7C2 4.23858 3.79086 2 6 2C8.20914 2 10 4.23858 10 7Z"/>
<path d="M16 7C16 9.76142 14.2091 12 12 12C9.79086 12 8 9.76142 8 7C8 4.23858 9.79086 2 12 2C14.2091 2 16 4.23858 16 7Z"/>
<path d="M14 9C14 11.7614 11.7614 14 9 14C6.23858 14 4 11.7614 4 9C4 6.23858 6.23858 4 9 4C11.7614 4 14 6.23858 14 9Z"/>
<path fill-rule="evenodd" clip-rule="evenodd" d="M12.7066 2.64924C11.5503 2.27838 10.1816 2.57772 9.49732 3.61556C9.36179 3.82113 9.13399 3.94708 8.88782 3.95255C8.64165 3.95802 8.40848 3.84231 8.26395 3.64296C7.50945 2.60225 6.15494 2.28565 5.029 2.64899C2.91969 3.32791 2.01229 5.92352 2.7386 8.19148C3.3226 10.0087 4.60285 11.4032 5.9149 12.3522C6.56804 12.8246 7.21502 13.1761 7.7606 13.407C8.33084 13.6483 8.71851 13.7275 8.87117 13.7275C9.02174 13.7275 9.41048 13.6469 9.98534 13.4014C10.5345 13.1668 11.1857 12.8109 11.8416 12.3352C13.1606 11.3789 14.4373 9.9852 15.0002 8.19548L15.0013 8.19191C15.7267 5.9252 14.8162 3.32864 12.7066 2.64924ZM8.85198 2.07263C10.0555 0.959291 11.8022 0.783693 13.1653 1.2211C16.3288 2.23962 17.3122 5.8893 16.4306 8.64728C15.7407 10.8392 14.2064 12.4734 12.7221 13.5496C11.9762 14.0904 11.2275 14.502 10.5745 14.7809C9.94716 15.0488 9.33146 15.2275 8.87117 15.2275C8.41332 15.2275 7.8017 15.0532 7.17598 14.7884C6.52559 14.5131 5.77991 14.1058 5.03581 13.5676C3.55345 12.4954 2.02093 10.8615 1.31037 8.64991C0.427331 5.89299 1.40271 2.24055 4.56864 1.22138M8.85198 2.07263C7.64285 1.00774 5.9566 0.773687 4.56864 1.22138Z"/>
<path fill-rule="evenodd" clip-rule="evenodd" d="M10.9277 4.68215C10.9701 4.27011 11.3384 3.97039 11.7505 4.01272C12.3921 4.07864 12.9494 4.37433 13.3331 4.85957C13.712 5.33867 13.8829 5.95204 13.8611 6.60045C13.8473 7.01443 13.5004 7.33877 13.0864 7.32488C12.6724 7.31098 12.3481 6.96412 12.362 6.55014C12.374 6.1928 12.2787 5.94442 12.1565 5.78997C12.0392 5.64164 11.8608 5.53195 11.5972 5.50487C11.1851 5.46254 10.8854 5.0942 10.9277 4.68215Z"/>
</mask>
<path d="M10 7C10 9.76142 8.20914 12 6 12C3.79086 12 2 9.76142 2 7C2 4.23858 3.79086 2 6 2C8.20914 2 10 4.23858 10 7Z" fill="#B10000"/>
<path d="M16 7C16 9.76142 14.2091 12 12 12C9.79086 12 8 9.76142 8 7C8 4.23858 9.79086 2 12 2C14.2091 2 16 4.23858 16 7Z" fill="#B10000"/>
<path d="M14 9C14 11.7614 11.7614 14 9 14C6.23858 14 4 11.7614 4 9C4 6.23858 6.23858 4 9 4C11.7614 4 14 6.23858 14 9Z" fill="#B10000"/>
<path fill-rule="evenodd" clip-rule="evenodd" d="M12.7066 2.64924C11.5503 2.27838 10.1816 2.57772 9.49732 3.61556C9.36179 3.82113 9.13399 3.94708 8.88782 3.95255C8.64165 3.95802 8.40848 3.84231 8.26395 3.64296C7.50945 2.60225 6.15494 2.28565 5.029 2.64899C2.91969 3.32791 2.01229 5.92352 2.7386 8.19148C3.3226 10.0087 4.60285 11.4032 5.9149 12.3522C6.56804 12.8246 7.21502 13.1761 7.7606 13.407C8.33084 13.6483 8.71851 13.7275 8.87117 13.7275C9.02174 13.7275 9.41048 13.6469 9.98534 13.4014C10.5345 13.1668 11.1857 12.8109 11.8416 12.3352C13.1606 11.3789 14.4373 9.9852 15.0002 8.19548L15.0013 8.19191C15.7267 5.9252 14.8162 3.32864 12.7066 2.64924ZM8.85198 2.07263C10.0555 0.959291 11.8022 0.783693 13.1653 1.2211C16.3288 2.23962 17.3122 5.8893 16.4306 8.64728C15.7407 10.8392 14.2064 12.4734 12.7221 13.5496C11.9762 14.0904 11.2275 14.502 10.5745 14.7809C9.94716 15.0488 9.33146 15.2275 8.87117 15.2275C8.41332 15.2275 7.8017 15.0532 7.17598 14.7884C6.52559 14.5131 5.77991 14.1058 5.03581 13.5676C3.55345 12.4954 2.02093 10.8615 1.31037 8.64991C0.427331 5.89299 1.40271 2.24055 4.56864 1.22138M8.85198 2.07263C7.64285 1.00774 5.9566 0.773687 4.56864 1.22138Z" fill="#B10000"/>
<path fill-rule="evenodd" clip-rule="evenodd" d="M10.9277 4.68215C10.9701 4.27011 11.3384 3.97039 11.7505 4.01272C12.3921 4.07864 12.9494 4.37433 13.3331 4.85957C13.712 5.33867 13.8829 5.95204 13.8611 6.60045C13.8473 7.01443 13.5004 7.33877 13.0864 7.32488C12.6724 7.31098 12.3481 6.96412 12.362 6.55014C12.374 6.1928 12.2787 5.94442 12.1565 5.78997C12.0392 5.64164 11.8608 5.53195 11.5972 5.50487C11.1851 5.46254 10.8854 5.0942 10.9277 4.68215Z" fill="white"/>
<path d="M8.75452 2.56303C9.02537 2.61686 9.28856 2.44093 9.34239 2.17009C9.39622 1.89924 9.22029 1.63604 8.94944 1.58222L8.75452 2.56303ZM4.6661 0.730973C4.39525 0.677147 4.13206 0.853077 4.07823 1.12392C4.0244 1.39477 4.20033 1.65797 4.47118 1.71179L4.6661 0.730973ZM4.47118 1.71179L8.75452 2.56303L8.94944 1.58222L4.6661 0.730973L4.47118 1.71179ZM9.49732 3.61556L8.66244 3.06513L8.66244 3.06513L9.49732 3.61556ZM12.7066 2.64924L13.0131 1.69738L13.012 1.69702L12.7066 2.64924ZM8.26395 3.64296L7.45434 4.22992L7.45434 4.22992L8.26395 3.64296ZM5.029 2.64899L5.33538 3.6009L5.3361 3.60067L5.029 2.64899ZM2.7386 8.19148L1.78624 8.49647L1.78655 8.49744L2.7386 8.19148ZM5.9149 12.3522L6.50096 11.5419L6.50096 11.5419L5.9149 12.3522ZM7.7606 13.407L7.37085 14.3279L7.37085 14.3279L7.7606 13.407ZM9.98534 13.4014L10.3781 14.321L10.3781 14.321L9.98534 13.4014ZM11.8416 12.3352L11.2546 11.5257L11.2546 11.5257L11.8416 12.3352ZM15.0002 8.19548L14.047 7.8931L14.0463 7.89546L15.0002 8.19548ZM15.0013 8.19191L14.0489 7.88713L14.0482 7.88953L15.0013 8.19191ZM13.1653 1.2211L13.4718 0.269221L13.4709 0.268925L13.1653 1.2211ZM8.85198 2.07263L8.19106 2.82308C8.57586 3.16198 9.15466 3.1549 9.53106 2.80669L8.85198 2.07263ZM16.4306 8.64728L15.478 8.3428L15.4767 8.34705L16.4306 8.64728ZM12.7221 13.5496L12.1351 12.74L12.1351 12.74L12.7221 13.5496ZM10.5745 14.7809L10.9672 15.7005L10.9672 15.7005L10.5745 14.7809ZM7.17598 14.7884L7.56573 13.8674L7.56573 13.8674L7.17598 14.7884ZM5.03581 13.5676L5.62187 12.7573L5.62187 12.7573L5.03581 13.5676ZM1.31037 8.64991L0.358025 8.95494L0.358301 8.9558L1.31037 8.64991ZM4.56864 1.22138L4.87507 2.17328L4.87562 2.1731L4.56864 1.22138ZM11.7505 4.01272L11.6483 5.00749L11.6483 5.00749L11.7505 4.01272ZM10.9277 4.68215L9.93298 4.57995L9.93298 4.57995L10.9277 4.68215ZM13.3331 4.85957L12.5487 5.47983L12.5487 5.47983L13.3331 4.85957ZM13.8611 6.60045L12.8617 6.56691L12.8617 6.56691L13.8611 6.60045ZM13.0864 7.32488L13.12 6.32544L13.12 6.32544L13.0864 7.32488ZM12.362 6.55014L11.3626 6.51661L11.3626 6.51661L12.362 6.55014ZM12.1565 5.78997L11.3721 6.41024L11.3721 6.41024L12.1565 5.78997ZM11.5972 5.50487L11.495 6.49964L11.495 6.49964L11.5972 5.50487ZM9 7C9 9.4289 7.46016 11 6 11V13C8.95812 13 11 10.0939 11 7H9ZM6 11C4.53984 11 3 9.4289 3 7H1C1 10.0939 3.04188 13 6 13V11ZM3 7C3 4.5711 4.53984 3 6 3V1C3.04188 1 1 3.90606 1 7H3ZM6 3C7.46016 3 9 4.5711 9 7H11C11 3.90606 8.95812 1 6 1V3ZM15 7C15 9.4289 13.4602 11 12 11V13C14.9581 13 17 10.0939 17 7H15ZM12 11C10.5398 11 9 9.4289 9 7H7C7 10.0939 9.04188 13 12 13V11ZM9 7C9 4.5711 10.5398 3 12 3V1C9.04188 1 7 3.90606 7 7H9ZM12 3C13.4602 3 15 4.5711 15 7H17C17 3.90606 14.9581 1 12 1V3ZM13 9C13 11.2091 11.2091 13 9 13V15C12.3137 15 15 12.3137 15 9H13ZM9 13C6.79086 13 5 11.2091 5 9H3C3 12.3137 5.68629 15 9 15V13ZM5 9C5 6.79086 6.79086 5 9 5V3C5.68629 3 3 5.68629 3 9H5ZM9 5C11.2091 5 13 6.79086 13 9H15C15 5.68629 12.3137 3 9 3V5ZM10.3322 4.166C10.7088 3.59472 11.5571 3.33074 12.4012 3.60146L13.012 1.69702C11.5435 1.22601 9.6543 1.56072 8.66244 3.06513L10.3322 4.166ZM8.91002 4.95231C9.48442 4.93955 10.016 4.64566 10.3322 4.166L8.66244 3.06513C8.70762 2.99661 8.78356 2.95462 8.86561 2.9528L8.91002 4.95231ZM7.45434 4.22992C7.79157 4.69507 8.33563 4.96506 8.91002 4.95231L8.86561 2.9528C8.94767 2.95098 9.02539 2.98955 9.07357 3.056L7.45434 4.22992ZM5.3361 3.60067C6.11043 3.35079 6.98924 3.5884 7.45434 4.22992L9.07357 3.056C8.02966 1.6161 6.19945 1.22051 4.72189 1.69732L5.3361 3.60067ZM3.69095 7.88649C3.07246 5.95518 3.92187 4.05586 5.33538 3.6009L4.72261 1.69709C1.9175 2.59995 0.952125 5.89186 1.78624 8.49647L3.69095 7.88649ZM6.50096 11.5419C5.30252 10.6751 4.19026 9.44019 3.69064 7.88553L1.78655 8.49744C2.45493 10.5773 3.90318 12.1313 5.32884 13.1624L6.50096 11.5419ZM8.15035 12.486C7.67464 12.2847 7.09346 11.9704 6.50096 11.5419L5.32884 13.1624C6.04262 13.6787 6.7554 14.0674 7.37085 14.3279L8.15035 12.486ZM8.87117 12.7275C8.9235 12.7275 8.88642 12.7332 8.73025 12.6915C8.59321 12.655 8.3979 12.5908 8.15035 12.486L7.37085 14.3279C7.9773 14.5846 8.51459 14.7275 8.87117 14.7275V12.7275ZM9.59259 12.4817C9.34248 12.5886 9.14561 12.654 9.00794 12.6912C8.939 12.7099 8.88959 12.7202 8.85935 12.7254C8.82299 12.7316 8.83131 12.7275 8.87117 12.7275V14.7275C9.22872 14.7275 9.76913 14.5811 10.3781 14.321L9.59259 12.4817ZM11.2546 11.5257C10.6586 11.9578 10.0726 12.2768 9.59259 12.4817L10.3781 14.321C10.9965 14.0569 11.7127 13.6639 12.4286 13.1448L11.2546 11.5257ZM14.0463 7.89546C13.5679 9.41663 12.463 10.6495 11.2546 11.5257L12.4286 13.1448C13.8583 12.1082 15.3068 10.5538 15.9541 8.49549L14.0463 7.89546ZM14.0482 7.88953L14.047 7.8931L15.9534 8.49785L15.9545 8.49428L14.0482 7.88953ZM12.4 3.60109C13.8152 4.05685 14.6661 5.9584 14.0489 7.88713L15.9538 8.49668C16.7873 5.892 15.8172 2.60042 13.0131 1.69738L12.4 3.60109ZM13.4709 0.268925C11.841 -0.254076 9.69554 -0.0700298 8.1729 1.33856L9.53106 2.80669C10.4154 1.98861 11.7634 1.82146 12.8598 2.17328L13.4709 0.268925ZM17.3831 8.95177C18.367 5.87372 17.3441 1.51595 13.4718 0.269221L12.8589 2.17299C15.3136 2.96329 16.2574 5.90488 15.478 8.3428L17.3831 8.95177ZM13.3091 14.3592C14.9037 13.203 16.61 11.4081 17.3844 8.94752L15.4767 8.34705C14.8714 10.2702 13.5091 11.7438 12.1351 12.74L13.3091 14.3592ZM10.9672 15.7005C11.6894 15.3921 12.5033 14.9435 13.3091 14.3592L12.1351 12.74C11.4492 13.2374 10.7655 13.6119 10.1817 13.8612L10.9672 15.7005ZM8.87117 16.2275C9.53762 16.2275 10.3044 15.9836 10.9672 15.7005L10.1817 13.8612C9.58993 14.114 9.12531 14.2275 8.87117 14.2275V16.2275ZM6.78622 15.7093C7.44945 15.99 8.21015 16.2275 8.87117 16.2275V14.2275C8.61648 14.2275 8.15396 14.1164 7.56573 13.8674L6.78622 15.7093ZM4.44974 14.3778C5.25449 14.9599 6.06597 15.4044 6.78623 15.7093L7.56573 13.8674C6.98521 13.6217 6.30533 13.2516 5.62187 12.7573L4.44974 14.3778ZM0.358301 8.9558C1.15332 11.4302 2.85405 13.2237 4.44974 14.3778L5.62187 12.7573C4.25286 11.7671 2.88854 10.2927 2.26243 8.34401L0.358301 8.9558ZM4.26221 0.26949C2.34654 0.886179 1.10673 2.30502 0.486999 3.92709C-0.125807 5.53102 -0.150578 7.36704 0.358025 8.95494L2.26271 8.34487C1.88828 7.17586 1.90968 5.8072 2.35528 4.64089C2.79396 3.49272 3.62481 2.57576 4.87507 2.17328L4.26221 0.26949ZM9.51291 1.32217C8.01084 -0.000696314 5.94761 -0.274149 4.26166 0.269668L4.87562 2.1731C5.96559 1.82152 7.27485 2.01617 8.19106 2.82308L9.51291 1.32217ZM11.8527 3.01796C10.8912 2.91919 10.0318 3.61852 9.93298 4.57995L11.9225 4.78435C11.9084 4.9217 11.7856 5.0216 11.6483 5.00749L11.8527 3.01796ZM14.1175 4.2393C13.556 3.52921 12.7459 3.10973 11.8527 3.01796L11.6483 5.00749C12.0382 5.04755 12.3428 5.21946 12.5487 5.47983L14.1175 4.2393ZM14.8606 6.63399C14.8888 5.7921 14.6678 4.93522 14.1175 4.2393L12.5487 5.47983C12.7561 5.74213 12.877 6.11199 12.8617 6.56691L14.8606 6.63399ZM13.0529 8.32431C14.0188 8.35673 14.8282 7.59995 14.8606 6.63399L12.8617 6.56691C12.8663 6.42892 12.982 6.32081 13.12 6.32544L13.0529 8.32431ZM11.3626 6.51661C11.3301 7.48256 12.0869 8.2919 13.0529 8.32431L13.12 6.32544C13.2579 6.33007 13.3661 6.44569 13.3614 6.58368L11.3626 6.51661ZM11.3721 6.41024C11.3497 6.38181 11.3476 6.3674 11.3513 6.37976C11.3549 6.39204 11.3653 6.43464 11.3626 6.51661L13.3614 6.58368C13.38 6.03099 13.2335 5.53971 12.9409 5.1697L11.3721 6.41024ZM11.495 6.49964C11.5113 6.50131 11.4941 6.50194 11.4599 6.48366C11.4249 6.46491 11.3942 6.43808 11.3721 6.41024L12.9409 5.1697C12.6466 4.79752 12.216 4.56318 11.6994 4.51011L11.495 6.49964ZM9.93298 4.57995C9.83421 5.54139 10.5335 6.40086 11.495 6.49964L11.6994 4.51011C11.8367 4.52422 11.9366 4.647 11.9225 4.78435L9.93298 4.57995Z" fill="white" mask="url(#path-1-outside-1_4052_38)"/>
</svg>
