<svg width="21" height="24" viewBox="0 0 21 24" fill="none" xmlns="http://www.w3.org/2000/svg">
<path fill-rule="evenodd" clip-rule="evenodd" d="M10.5 18.0786C16.8441 18.0786 19.7791 17.2647 20.0625 13.9981C20.0625 10.7336 18.0163 10.9436 18.0163 6.93825C18.0163 3.80966 15.0509 0.25 10.5 0.25C5.94912 0.25 2.9837 3.80966 2.9837 6.93825C2.9837 10.9436 0.9375 10.7336 0.9375 13.9981C1.22207 17.2771 4.157 18.0786 10.5 18.0786Z" fill="#787878"/>
<path fill-rule="evenodd" clip-rule="evenodd" d="M7.14542 20.8368C7.49204 20.5253 8.02551 20.5538 8.33696 20.9005C9.5478 22.248 11.3576 22.2353 12.5604 20.8997C12.8722 20.5535 13.4057 20.5256 13.752 20.8374C14.0983 21.1493 14.1262 21.6828 13.8143 22.029C11.9478 24.1016 8.96958 24.1293 7.08175 22.0283C6.77029 21.6817 6.7988 21.1482 7.14542 20.8368Z" fill="#787878"/>
</svg>
