<svg width="21" height="20" viewBox="0 0 21 20" fill="none" xmlns="http://www.w3.org/2000/svg">
<path d="M4.98536 5.69206C4.98536 5.11309 5.44175 4.64374 6.00473 4.64374H10.1434C10.7064 4.64374 11.1627 5.11309 11.1627 5.69206C11.1627 6.27104 10.7064 6.74039 10.1434 6.74039H6.00473C5.44175 6.74039 4.98536 6.27104 4.98536 5.69206Z" fill="#8F8F8F"/>
<path fill-rule="evenodd" clip-rule="evenodd" d="M20.8189 7.10508C20.9454 7.99389 21 8.95989 21 10C21 13.4322 20.405 16.0576 18.5964 17.7655C16.8139 19.4487 14.098 20 10.5005 20C6.90251 20 4.18635 19.4487 2.40376 17.7655C0.59499 16.0576 0 13.4322 0 10C0 6.56738 0.594971 3.94189 2.40379 2.23408C4.18641 0.551016 6.9026 0 10.5005 0C14.0979 0 16.8139 0.551024 18.5964 2.23411C19.8157 3.38549 20.4835 4.95397 20.7891 6.9057C20.805 6.96999 20.8152 7.03666 20.8189 7.10508ZM2.03874 10C2.03874 6.71837 2.62867 4.86801 3.78257 3.77855C4.96268 2.66434 6.98705 2.09665 10.5005 2.09665C14.0134 2.09665 16.0375 2.66433 17.2175 3.77852C17.8038 4.33212 18.2445 5.08218 18.5362 6.11667H15.8703C13.8647 6.11667 12.2384 7.78909 12.2384 9.85169C12.2384 11.915 13.8644 13.5877 15.8703 13.5877H18.6135C18.325 14.7765 17.8582 15.6161 17.2175 16.2211C16.0375 17.3354 14.0133 17.9034 10.5005 17.9034C6.98714 17.9034 4.96274 17.3354 3.78261 16.2211C2.62865 15.1315 2.03874 13.2811 2.03874 10ZM18.9145 11.4911C18.9456 11.03 18.9613 10.5339 18.9613 10C18.9613 9.35003 18.9381 8.7562 18.892 8.21331H15.8703C14.9906 8.21331 14.2772 8.94704 14.2772 9.85169C14.2772 10.7576 14.9909 11.4911 15.8703 11.4911H18.9145Z" fill="#8F8F8F"/>
</svg>
