<svg width="14" height="14" viewBox="0 0 14 14" fill="none" xmlns="http://www.w3.org/2000/svg">
<path fill-rule="evenodd" clip-rule="evenodd" d="M13.7521 12.9279L9.44492 8.62072C10.2819 7.57313 10.6859 6.24469 10.574 4.90853C10.4623 3.57233 9.84301 2.32969 8.84357 1.4356C7.84413 0.541708 6.54041 0.0643689 5.20002 0.101638C3.85963 0.139023 2.58442 0.688135 1.63631 1.63631C0.688135 2.58448 0.139018 3.85968 0.101639 5.20002C0.0643615 6.54041 0.54171 7.84413 1.4356 8.84357C2.32961 9.84301 3.57227 10.4623 4.90853 10.574C6.24474 10.6859 7.57315 10.2819 8.62072 9.44492L12.9279 13.7521C13.0144 13.8412 13.1332 13.8915 13.2574 13.8915C13.3815 13.8915 13.5004 13.8412 13.5868 13.7521L13.7522 13.5868C13.8413 13.5003 13.8916 13.3815 13.8916 13.2573C13.8916 13.1331 13.8413 13.0144 13.7522 12.9278L13.7521 12.9279ZM4.9332 9.40822C3.90556 9.30205 2.95655 8.80986 2.27776 8.031C1.59909 7.25225 1.24127 6.24479 1.27674 5.21213C1.31209 4.17969 1.73816 3.19906 2.46865 2.46846C3.19914 1.73797 4.17977 1.3119 5.21232 1.27654C6.24488 1.24108 7.2523 1.5989 8.03119 2.27757C8.81005 2.95635 9.30224 3.90537 9.40841 4.93301C9.52922 6.15289 9.09675 7.36274 8.22995 8.22957C7.36316 9.09639 6.15333 9.52883 4.93339 9.40803L4.9332 9.40822Z" fill="#8F8F8F"/>
</svg>
